<svg width="272" height="272" viewBox="0 0 272 272" fill="none" xmlns="http://www.w3.org/2000/svg">
<path fill-rule="evenodd" clip-rule="evenodd" d="M221.842 162.351C227.001 165.914 233.258 168 240.002 168C257.675 168 272.002 153.673 272.002 136C272.002 118.327 257.675 104 240.002 104C233.259 104 227.002 106.086 221.843 109.648C200.36 121.402 156.002 132.266 156.002 132.266L156.002 139.733C156.002 139.733 200.358 150.597 221.842 162.351Z" fill="#B60070"/>
<path fill-rule="evenodd" clip-rule="evenodd" d="M178.067 215.331C179.196 221.498 182.145 227.398 186.914 232.167C199.411 244.663 219.672 244.663 232.169 232.167C244.665 219.67 244.665 199.409 232.169 186.912C227.4 182.143 221.502 179.195 215.335 178.065C191.832 171.186 152.784 147.502 152.784 147.502L147.504 152.782C147.504 152.782 171.187 191.828 178.067 215.331Z" fill="#B60070"/>
<path fill-rule="evenodd" clip-rule="evenodd" d="M109.651 221.84C106.088 226.999 104.002 233.256 104.002 240C104.002 257.673 118.329 272 136.002 272C153.675 272 168.002 257.673 168.002 240C168.002 233.257 165.916 227 162.354 221.841C150.6 200.358 139.735 156 139.735 156L132.269 156C132.269 156 121.405 200.356 109.651 221.84Z" fill="#B60070"/>
<path fill-rule="evenodd" clip-rule="evenodd" d="M56.67 178.065C50.5028 179.194 44.6034 182.143 39.8346 186.912C27.3379 199.409 27.3379 219.67 39.8346 232.167C52.3314 244.663 72.5927 244.663 85.0895 232.167C89.8578 227.398 92.8067 221.5 93.9362 215.333C100.816 191.83 124.499 152.782 124.499 152.782L119.219 147.502C119.219 147.502 80.173 171.185 56.67 178.065Z" fill="#B60070"/>
<path fill-rule="evenodd" clip-rule="evenodd" d="M50.1602 109.649C45.0009 106.086 38.7441 104 32 104C14.3269 104 4.0317e-06 118.327 2.59727e-06 136C1.16284e-06 153.673 14.3269 168 32 168C38.7434 168 44.9997 165.914 50.1587 162.352C71.6423 150.598 116 139.734 116 139.734L116 132.267C116 132.267 71.6443 121.403 50.1602 109.649Z" fill="#B60070"/>
<path fill-rule="evenodd" clip-rule="evenodd" d="M93.9352 56.669C92.806 50.5019 89.857 44.6024 85.0882 39.8337C72.5914 27.3369 52.3301 27.3369 39.8333 39.8336C27.3366 52.3304 27.3366 72.5917 39.8333 85.0885C44.6017 89.8568 50.5004 92.8057 56.667 93.9352C80.1698 100.815 119.218 124.498 119.218 124.498L124.498 119.218C124.498 119.218 100.815 80.1721 93.9352 56.669Z" fill="#B60070"/>
<path fill-rule="evenodd" clip-rule="evenodd" d="M162.351 50.1604C165.914 45.0011 168 38.7443 168 32.0002C168 14.3271 153.673 0.000233224 136 0.000231679C118.327 0.000230134 104 14.3271 104 32.0002C104 38.7437 106.086 44.9999 109.647 50.159C121.402 71.6425 132.266 116 132.266 116L139.733 116C139.733 116 150.597 71.6445 162.351 50.1604Z" fill="#B60070"/>
<path fill-rule="evenodd" clip-rule="evenodd" d="M215.334 93.9352C221.501 92.8059 227.401 89.8569 232.169 85.0882C244.666 72.5914 244.666 52.3301 232.169 39.8333C219.673 27.3366 199.411 27.3366 186.914 39.8333C182.146 44.6017 179.197 50.5004 178.068 56.667C171.188 80.1698 147.505 119.218 147.505 119.218L152.785 124.498C152.785 124.498 191.831 100.815 215.334 93.9352Z" fill="#B60070"/>
<path d="M133.458 110.653C133.717 107.533 138.283 107.533 138.542 110.653C138.754 113.207 142.178 113.888 143.352 111.609C144.785 108.826 149.003 110.573 148.049 113.555C147.267 115.996 150.17 117.936 152.126 116.279C154.515 114.256 157.744 117.485 155.721 119.874C154.064 121.83 156.004 124.733 158.445 123.952C161.427 122.997 163.174 127.215 160.391 128.648C158.112 129.822 158.793 133.246 161.347 133.458C164.467 133.717 164.467 138.283 161.347 138.542C158.793 138.754 158.112 142.178 160.391 143.352C163.174 144.785 161.427 149.003 158.445 148.049C156.004 147.267 154.064 150.17 155.721 152.126C157.744 154.515 154.515 157.744 152.126 155.721C150.17 154.064 147.267 156.004 148.048 158.445C149.003 161.427 144.785 163.174 143.352 160.391C142.178 158.112 138.754 158.793 138.542 161.347C138.283 164.467 133.717 164.467 133.458 161.347C133.246 158.793 129.822 158.112 128.648 160.391C127.215 163.174 122.997 161.427 123.952 158.445C124.733 156.004 121.83 154.064 119.874 155.721C117.485 157.744 114.256 154.515 116.279 152.126C117.936 150.17 115.996 147.267 113.555 148.049C110.573 149.003 108.826 144.785 111.609 143.352C113.888 142.178 113.207 138.754 110.653 138.542C107.533 138.283 107.533 133.717 110.653 133.458C113.207 133.246 113.888 129.822 111.609 128.648C108.826 127.215 110.573 122.997 113.555 123.952C115.996 124.733 117.936 121.83 116.279 119.874C114.256 117.485 117.485 114.256 119.874 116.279C121.83 117.936 124.733 115.996 123.952 113.555C122.997 110.573 127.215 108.826 128.648 111.609C129.822 113.888 133.246 113.207 133.458 110.653Z" fill="#F4B442"/>
<path d="M165.699 106.301L136.001 136" stroke="#DC8433" stroke-width="2"/>
<circle cx="165.699" cy="106.301" r="6" transform="rotate(45 165.699 106.301)" fill="#F4B442"/>
<path d="M174.803 119.927L136 136" stroke="#DC8433" stroke-width="2"/>
<circle cx="174.804" cy="119.927" r="6" transform="rotate(67.5 174.804 119.927)" fill="#F4B442"/>
<path d="M178 136L136 136" stroke="#DC8433" stroke-width="2"/>
<circle cx="178" cy="136" r="6" transform="rotate(90 178 136)" fill="#F4B442"/>
<path d="M174.803 152.073L136 136" stroke="#DC8433" stroke-width="2"/>
<circle cx="174.803" cy="152.073" r="6" transform="rotate(112.5 174.803 152.073)" fill="#F4B442"/>
<path d="M165.699 165.698L136.001 136" stroke="#DC8433" stroke-width="2"/>
<circle cx="165.698" cy="165.698" r="6" transform="rotate(135 165.698 165.698)" fill="#F4B442"/>
<path d="M152.072 174.803L136 136" stroke="#DC8433" stroke-width="2"/>
<circle cx="152.073" cy="174.803" r="6" transform="rotate(157.5 152.073 174.803)" fill="#F4B442"/>
<path d="M136 178L136 136" stroke="#DC8433" stroke-width="2"/>
<circle cx="136" cy="178" r="6" transform="rotate(180 136 178)" fill="#F4B442"/>
<path d="M119.928 174.803L136 136" stroke="#DC8433" stroke-width="2"/>
<circle cx="119.929" cy="174.803" r="6" transform="rotate(-157.5 119.929 174.803)" fill="#F4B442"/>
<path d="M106.303 165.698L136.001 136" stroke="#DC8433" stroke-width="2"/>
<circle cx="106.303" cy="165.699" r="6" transform="rotate(-135 106.303 165.699)" fill="#F4B442"/>
<path d="M97.1992 152.073L136.002 136" stroke="#DC8433" stroke-width="2"/>
<circle cx="97.1979" cy="152.073" r="6" transform="rotate(-112.5 97.1979 152.073)" fill="#F4B442"/>
<path d="M94 136L136 136" stroke="#DC8433" stroke-width="2"/>
<circle cx="94" cy="136" r="6" transform="rotate(-90 94 136)" fill="#F4B442"/>
<path d="M97.1992 119.927L136.002 136" stroke="#DC8433" stroke-width="2"/>
<circle cx="97.1988" cy="119.927" r="6" transform="rotate(-67.5 97.1988 119.927)" fill="#F4B442"/>
<path d="M106.303 106.302L136.001 136" stroke="#DC8433" stroke-width="2"/>
<circle cx="106.304" cy="106.302" r="6" transform="rotate(-45 106.304 106.302)" fill="#F4B442"/>
<path d="M119.93 97.1971L136.002 136" stroke="#DC8433" stroke-width="2"/>
<circle cx="119.93" cy="97.1971" r="6" transform="rotate(-22.5 119.93 97.1971)" fill="#F4B442"/>
<path d="M136.002 94V136" stroke="#DC8433" stroke-width="2"/>
<circle cx="136.002" cy="94" r="6" fill="#F4B442"/>
<path d="M152.072 97.197L136 136" stroke="#DC8433" stroke-width="2"/>
<circle cx="152.071" cy="97.197" r="6" transform="rotate(22.5 152.071 97.197)" fill="#F4B442"/>
</svg>
