<svg width="173" height="169" viewBox="0 0 173 169" fill="none" xmlns="http://www.w3.org/2000/svg">
<path d="M147.596 112.363C136.806 97.5126 116.02 94.2205 101.169 105.01C86.3186 115.8 83.0265 136.586 93.8163 151.436C104.606 166.287 124.24 161.118 131.399 146.618C147.568 144.169 158.385 127.214 147.596 112.363Z" fill="#5D0085"/>
<path d="M83.9325 80.8821C81.6966 82.5065 87.348 131.419 87.348 131.419L130.435 100.115C130.435 100.115 86.1683 79.2576 83.9325 80.8821Z" fill="#5D0085"/>
<path d="M78.366 151.158C89.1558 136.307 85.8636 115.521 71.0128 104.732C56.1621 93.942 35.3763 97.2342 24.5866 112.085C13.7968 126.936 24.7802 144.011 40.7828 146.34C48.1086 160.96 67.5763 166.009 78.366 151.158Z" fill="#5D0085"/>
<path d="M88.6335 80.8825C86.3977 79.258 41.6251 99.7477 41.6251 99.7477L84.712 131.052C84.712 131.052 90.8694 82.5069 88.6335 80.8825Z" fill="#5D0085"/>
<path d="M20.0774 97.3062C37.5355 102.979 56.2866 93.4245 61.9591 75.9664C67.6316 58.5082 58.0774 39.7571 40.6193 34.0846C23.1611 28.4121 10.3156 44.1344 13.0459 60.0735C1.40465 71.5588 2.61922 91.6337 20.0774 97.3062Z" fill="#5D0085"/>
<path d="M90.0862 85.3548C90.9402 82.7264 57.6179 46.4768 57.6179 46.4768L41.1601 97.1285C41.1601 97.1285 89.2322 87.9832 90.0862 85.3548Z" fill="#5D0085"/>
<path d="M53.2826 25.2295C53.2826 43.5861 68.1636 58.4671 86.5202 58.4671C104.877 58.4671 119.758 43.5861 119.758 25.2295C119.758 6.87293 100.835 -0.485405 86.5202 7.0367C71.9997 -0.485673 53.2826 6.87294 53.2826 25.2295Z" fill="#5D0085"/>
<path d="M86.283 88.1187C89.0466 88.1187 113.225 45.2255 113.225 45.2255L59.9665 45.2255C59.9665 45.2255 83.5193 88.1187 86.283 88.1187Z" fill="#5D0085"/>
<path d="M132.094 34.5351C114.636 40.2076 105.082 58.9587 110.754 76.4169C116.427 93.875 135.178 103.429 152.636 97.7567C170.094 92.0842 171.245 71.8142 159.668 60.524C162.335 44.3896 149.552 28.8626 132.094 34.5351Z" fill="#5D0085"/>
<path d="M82.4806 85.3541C83.3346 87.9826 131.6 97.7227 131.6 97.7227L115.142 47.071C115.142 47.071 81.6266 82.7257 82.4806 85.3541Z" fill="#5D0085"/>
<path d="M82.214 61.187C82.7894 56.7515 89.2106 56.7515 89.786 61.187C90.2 64.3787 94.1352 65.6574 96.3462 63.3185C99.4188 60.0683 104.614 63.8427 102.472 67.7692C100.931 70.5948 103.363 73.9422 106.527 73.3497C110.923 72.5262 112.907 78.6332 108.866 80.5511C105.959 81.9311 105.959 86.0689 108.866 87.4489C112.907 89.3668 110.923 95.4738 106.527 94.6503C103.363 94.0578 100.931 97.4052 102.472 100.231C104.614 104.157 99.4188 107.932 96.3462 104.681C94.1352 102.343 90.2 103.621 89.786 106.813C89.2106 111.249 82.7894 111.249 82.214 106.813C81.8 103.621 77.8648 102.343 75.6538 104.681C72.5812 107.932 67.3863 104.157 69.5279 100.231C71.069 97.4052 68.6369 94.0578 65.4734 94.6503C61.0773 95.4738 59.093 89.3668 63.1336 87.4489C66.0412 86.0689 66.0412 81.9311 63.1336 80.5511C59.093 78.6332 61.0773 72.5262 65.4734 73.3497C68.6369 73.9422 71.069 70.5948 69.5279 67.7692C67.3863 63.8427 72.5812 60.0683 75.6538 63.3185C77.8648 65.6574 81.8 64.3787 82.214 61.187Z" fill="#EED2F8" stroke="#824E8A" stroke-width="2"/>
</svg>
